<svg xmlns:xlink="http://www.w3.org/1999/xlink"  xmlns="http://www.w3.org/2000/svg" width="141" height="132" viewBox="0 0 141 132" fill="none">
<rect x="8.5" y="1.28571" width="129.429" height="129.429" rx="64.7143" fill="#F8F8F8"/>
<g clip-path="url(#clip0_4172_802)">
<path d="M94.7857 101.953L106.83 90.1458C107.568 89.4291 108.156 88.5717 108.558 87.6242C108.959 86.6767 109.167 85.6583 109.169 84.6291C109.171 83.6 108.966 82.5809 108.567 81.6321C108.169 80.6833 107.584 79.8239 106.848 79.1048C105.345 77.6356 103.329 76.8111 101.227 76.8071C99.126 76.8031 97.1062 77.6198 95.5982 79.0833L94.7929 79.8742L93.9911 79.0833C92.489 77.6151 90.473 76.7913 88.3726 76.7873C86.2721 76.7832 84.253 77.5993 82.7452 79.0617C82.0064 79.7782 81.4186 80.6354 81.0166 81.5828C80.6145 82.5301 80.4063 83.5485 80.4043 84.5776C80.4023 85.6068 80.6065 86.6259 81.0049 87.5749C81.4032 88.5238 81.9876 89.3833 82.7237 90.1027L94.7857 101.953Z" stroke="#F25F2C" stroke-width="3.2684" stroke-linecap="round" stroke-linejoin="round"/>
<path d="M69.6182 39.8528H76.8086" stroke="#007C92" stroke-width="3.2684" stroke-linecap="round" stroke-linejoin="round"/>
<path d="M71.4164 98.3571H58.8331C56.926 98.3571 55.0971 97.5995 53.7486 96.251C52.4001 94.9025 51.6426 93.0736 51.6426 91.1666V40.8332C51.6426 38.9262 52.4001 37.0973 53.7486 35.7488C55.0971 34.4003 56.926 33.6428 58.8331 33.6428H87.595C89.502 33.6428 91.3309 34.4003 92.6794 35.7488C94.0279 37.0973 94.7854 38.9262 94.7854 40.8332V62.4047" stroke="#007C92" stroke-width="3.2684" stroke-linecap="round" stroke-linejoin="round"/>
</g>
<circle cx="21.9824" cy="22.8572" r="18.875" fill="#F25F2C"/>
<path d="M25.2074 15.4451V29.1724H22.7206V17.8648H22.6402L19.4296 19.9159V17.637L22.8413 15.4451H25.2074Z" fill="white"/>
<defs>
<clipPath id="clip0_4172_802">
<rect width="86.2857" height="86.2857" fill="white" transform="translate(30.0713 22.8571)"/>
</clipPath>
</defs>
</svg>