<svg xmlns:xlink="http://www.w3.org/1999/xlink"  xmlns="http://www.w3.org/2000/svg" width="141" height="134" viewBox="0 0 141 134" fill="none">
<rect x="8.5" y="0.777771" width="132.444" height="132.444" rx="66.2222" fill="#F8F8F8"/>
<g clip-path="url(#clip0_4172_816)">
<path d="M74.7225 100.111H60.0065C58.055 100.111 56.1834 99.3358 54.8036 97.9559C53.4237 96.576 52.6484 94.7045 52.6484 92.753V41.2468C52.6484 39.2954 53.4237 37.4238 54.8036 36.0439C56.1834 34.664 58.055 33.8888 60.0065 33.8888H89.4386C91.39 33.8888 93.2616 34.664 94.6415 36.0439C96.0214 37.4238 96.7966 39.2954 96.7966 41.2468V63.3209" stroke="#007C92" stroke-width="3.42103" stroke-linecap="round" stroke-linejoin="round"/>
<path d="M85.7598 89.0741C85.7598 92.0013 86.9226 94.8086 88.9924 96.8785C91.0623 98.9483 93.8696 100.111 96.7968 100.111C99.724 100.111 102.531 98.9483 104.601 96.8785C106.671 94.8086 107.834 92.0013 107.834 89.0741C107.834 86.1469 106.671 83.3396 104.601 81.2698C102.531 79.1999 99.724 78.0371 96.7968 78.0371C93.8696 78.0371 91.0623 79.1999 88.9924 81.2698C86.9226 83.3396 85.7598 86.1469 85.7598 89.0741Z" stroke="#F25F2C" stroke-width="3.42103" stroke-linecap="round" stroke-linejoin="round"/>
<path d="M104.891 97.168L111.513 103.79" stroke="#F25F2C" stroke-width="3.42103" stroke-linecap="round" stroke-linejoin="round"/>
<path d="M71.043 40.3271H78.401" stroke="#007C92" stroke-width="3.42103" stroke-linecap="round" stroke-linejoin="round"/>
<path d="M74.7227 85.3951V85.4337" stroke="#007C92" stroke-width="3.42103" stroke-linecap="round" stroke-linejoin="round"/>
</g>
<circle cx="22.2963" cy="22.852" r="19.3148" fill="#F25F2C"/>
<path d="M17.5685 29.8952V28.057L22.4453 23.2763C22.9117 22.8053 23.3003 22.3869 23.6113 22.0211C23.9222 21.6553 24.1554 21.3009 24.3109 20.958C24.4664 20.615 24.5441 20.2492 24.5441 19.8606C24.5441 19.417 24.4435 19.0375 24.2423 18.722C24.0411 18.4019 23.7645 18.155 23.4124 17.9812C23.0603 17.8074 22.6602 17.7206 22.212 17.7206C21.7502 17.7206 21.3455 17.8166 20.998 18.0086C20.6505 18.1961 20.3807 18.4636 20.1887 18.8111C20.0012 19.1587 19.9074 19.5725 19.9074 20.0526H17.4862C17.4862 19.1609 17.6897 18.3859 18.0967 17.7274C18.5036 17.069 19.0638 16.5591 19.7771 16.1979C20.495 15.8366 21.3181 15.656 22.2463 15.656C23.1883 15.656 24.016 15.8321 24.7293 16.1842C25.4426 16.5362 25.9959 17.0187 26.3891 17.6314C26.787 18.2441 26.9859 18.9437 26.9859 19.7302C26.9859 20.2561 26.8853 20.7728 26.6841 21.2804C26.4829 21.7879 26.1285 22.3504 25.6209 22.9677C25.118 23.585 24.4115 24.3326 23.5015 25.2105L21.0803 27.6729V27.7689H27.1985V29.8952H17.5685Z" fill="white"/>
<defs>
<clipPath id="clip0_4172_816">
<rect width="88.2963" height="88.2963" fill="white" transform="translate(30.5742 22.8518)"/>
</clipPath>
</defs>
</svg>