<svg xmlns:xlink="http://www.w3.org/1999/xlink"  xmlns="http://www.w3.org/2000/svg" width="141" height="132" viewBox="0 0 141 132" fill="none">
<rect x="8.5" y="-0.00335693" width="132.007" height="132.007" rx="66.0034" fill="#F8F8F8"/>
<g clip-path="url(#clip0_4172_833)">
<path d="M55.0586 83.4177C60.216 78.2609 67.2106 75.3639 74.5039 75.3639C81.7972 75.3639 88.7918 78.2609 93.9492 83.4177" stroke="#007C92" stroke-width="3.46562" stroke-linecap="round" stroke-linejoin="round"/>
<path d="M53.4191 35.9468C58.4723 33.0294 64.4775 32.2388 70.1135 33.7489C75.7496 35.259 80.555 38.9462 83.4727 43.9992L45.3667 66.0004C42.4493 60.9472 41.6587 54.942 43.1688 49.3059C44.6789 43.6698 48.3661 38.8644 53.4191 35.9468Z" stroke="#007C92" stroke-width="3.46562" stroke-linecap="round" stroke-linejoin="round"/>
<path d="M58.0695 58.6663C51.9899 48.1425 49.9108 37.9706 53.4199 35.9465C56.9291 33.9224 64.6955 40.8088 70.7715 51.3326" stroke="#007C92" stroke-width="3.46562" stroke-linecap="round" stroke-linejoin="round"/>
<path d="M64.4203 54.9998L75.4209 74.0528" stroke="#007C92" stroke-width="3.46562" stroke-linecap="round" stroke-linejoin="round"/>
<path d="M108.422 92.5849C107.28 92.0173 106.029 91.7045 104.755 91.6681C103.327 91.6382 101.913 91.9564 100.635 92.5953C99.3573 93.2342 98.2543 94.1745 97.4213 95.335C96.5883 96.4955 95.4853 97.4358 94.2076 98.0747C92.9299 98.7136 91.5158 99.0318 90.0876 99.0019C88.6594 99.0318 87.2453 98.7136 85.9676 98.0747C84.6899 97.4358 83.5869 96.4955 82.7539 95.335C81.9209 94.1745 80.8179 93.2342 79.5402 92.5953C78.2625 91.9564 76.8484 91.6382 75.4202 91.6681C73.992 91.6382 72.5779 91.9564 71.3002 92.5953C70.0225 93.2342 68.9195 94.1745 68.0865 95.335C67.2535 96.4955 66.1505 97.4358 64.8728 98.0747C63.595 98.7136 62.181 99.0318 60.7528 99.0019C59.3246 99.0318 57.9105 98.7136 56.6328 98.0747C55.3551 97.4358 54.2521 96.4955 53.4191 95.335C52.5861 94.1745 51.4831 93.2342 50.2054 92.5953C48.9276 91.9564 47.5136 91.6382 46.0854 91.6681C44.8111 91.7045 43.56 92.0173 42.4185 92.5849" stroke="#F25F2C" stroke-width="3.46562" stroke-linecap="round" stroke-linejoin="round"/>
</g>
<circle cx="22.251" cy="21.9979" r="19.251" fill="#F25F2C"/>
<path d="M22.7921 29.2722C21.8077 29.2722 20.9326 29.1036 20.167 28.7663C19.4059 28.4291 18.8043 27.9596 18.3622 27.3581C17.9201 26.7565 17.6854 26.0614 17.6581 25.273H20.2285C20.2513 25.6513 20.3766 25.9817 20.6045 26.2642C20.8324 26.5423 21.1355 26.7587 21.5137 26.9137C21.892 27.0686 22.3159 27.1461 22.7853 27.1461C23.2866 27.1461 23.731 27.0595 24.1184 26.8863C24.5057 26.7086 24.8088 26.4625 25.0276 26.148C25.2463 25.8336 25.3534 25.4712 25.3489 25.0611C25.3534 24.6372 25.2441 24.2635 25.0207 23.9399C24.7974 23.6163 24.4738 23.3634 24.05 23.1811C23.6307 22.9988 23.1248 22.9076 22.5323 22.9076H21.295V20.9525H22.5323C23.02 20.9525 23.4461 20.8681 23.8107 20.6995C24.1799 20.5309 24.4693 20.2939 24.6789 19.9885C24.8886 19.6786 24.9911 19.3209 24.9866 18.9152C24.9911 18.5187 24.9022 18.1746 24.7199 17.883C24.5422 17.5867 24.2893 17.3566 23.9611 17.1925C23.6375 17.0284 23.257 16.9464 22.8195 16.9464C22.3911 16.9464 21.9945 17.0239 21.6299 17.1788C21.2653 17.3338 20.9714 17.5548 20.7481 17.8419C20.5247 18.1245 20.4063 18.4618 20.3926 18.8537H17.952C17.9703 18.0698 18.1959 17.3816 18.6288 16.7892C19.0663 16.1921 19.6497 15.7273 20.3789 15.3946C21.1081 15.0573 21.9262 14.8887 22.8331 14.8887C23.7674 14.8887 24.5787 15.0641 25.2668 15.4151C25.9596 15.7614 26.4951 16.2286 26.8734 16.8165C27.2517 17.4044 27.4408 18.0539 27.4408 18.7648C27.4453 19.5533 27.2129 20.2141 26.7435 20.7474C26.2786 21.2806 25.6679 21.6292 24.9114 21.7933V21.9027C25.8958 22.0394 26.6501 22.404 27.1742 22.9965C27.7028 23.5844 27.9649 24.3159 27.9603 25.1909C27.9603 25.9748 27.737 26.6767 27.2904 27.2965C26.8483 27.9118 26.2376 28.3949 25.4583 28.7458C24.6835 29.0967 23.7948 29.2722 22.7921 29.2722Z" fill="white"/>
<defs>
<clipPath id="clip0_4172_833">
<rect width="88.0045" height="88.0045" fill="white" transform="matrix(-1 0 0 1 119.423 21.9979)"/>
</clipPath>
</defs>
</svg>