<svg xmlns:xlink="http://www.w3.org/1999/xlink"  xmlns="http://www.w3.org/2000/svg" width="48" height="48" viewBox="0 0 48 48" fill="none">
<g clip-path="url(#clip0_4172_932)">
<path d="M8 28V22C8 17.7565 9.68571 13.6869 12.6863 10.6863C15.6869 7.68571 19.7565 6 24 6C28.2435 6 32.3131 7.68571 35.3137 10.6863C38.3143 13.6869 40 17.7565 40 22V28" stroke="#222222" stroke-width="1.75532" stroke-linecap="round" stroke-linejoin="round"/>
<path d="M36 38.0002C36 41.3142 30.628 44.0002 24 44.0002" stroke="#222222" stroke-width="1.75532" stroke-linecap="round" stroke-linejoin="round"/>
<path d="M8 28C8 26.9391 8.42143 25.9217 9.17157 25.1716C9.92172 24.4214 10.9391 24 12 24H14C15.0609 24 16.0783 24.4214 16.8284 25.1716C17.5786 25.9217 18 26.9391 18 28V34C18 35.0609 17.5786 36.0783 16.8284 36.8284C16.0783 37.5786 15.0609 38 14 38H12C10.9391 38 9.92172 37.5786 9.17157 36.8284C8.42143 36.0783 8 35.0609 8 34V28Z" stroke="#F25F2C" stroke-width="1.75532" stroke-linecap="round" stroke-linejoin="round"/>
<path d="M30 28C30 26.9391 30.4214 25.9217 31.1716 25.1716C31.9217 24.4214 32.9391 24 34 24H36C37.0609 24 38.0783 24.4214 38.8284 25.1716C39.5786 25.9217 40 26.9391 40 28V34C40 35.0609 39.5786 36.0783 38.8284 36.8284C38.0783 37.5786 37.0609 38 36 38H34C32.9391 38 31.9217 37.5786 31.1716 36.8284C30.4214 36.0783 30 35.0609 30 34V28Z" stroke="#F25F2C" stroke-width="1.75532" stroke-linecap="round" stroke-linejoin="round"/>
</g>
<defs>
<clipPath id="clip0_4172_932">
<rect width="48" height="48" fill="white"/>
</clipPath>
</defs>
</svg>