<svg xmlns:xlink="http://www.w3.org/1999/xlink"  xmlns="http://www.w3.org/2000/svg" width="48" height="48" viewBox="0 0 48 48" fill="none">
<path d="M8.21096 13.9633C9.65011 4.95121 18.104 1.61634 22.7413 1.08636C30.9881 0.170063 41.9833 6.58411 39.6926 18.4959C37.86 28.0253 28.5444 35.2946 24.1156 37.738C17.4346 34.3975 12.6213 27.6741 9.95661 22.6262C8.54912 19.9599 7.73551 16.9406 8.21096 13.9633Z" fill="#F25F2C"/>
<path d="M31.5 16.0276V23.2503C31.5 23.5818 31.3683 23.8998 31.1339 24.1342C30.8995 24.3686 30.5815 24.5003 30.25 24.5003H27.125C26.7935 24.5003 26.4755 24.3686 26.2411 24.1342C26.0067 23.8998 25.875 23.5818 25.875 23.2503V20.1253C25.875 19.9595 25.8092 19.8006 25.6919 19.6834C25.5747 19.5661 25.4158 19.5003 25.25 19.5003H22.75C22.5842 19.5003 22.4253 19.5661 22.3081 19.6834C22.1908 19.8006 22.125 19.9595 22.125 20.1253V23.2503C22.125 23.5818 21.9933 23.8998 21.7589 24.1342C21.5245 24.3686 21.2065 24.5003 20.875 24.5003H17.75C17.4185 24.5003 17.1005 24.3686 16.8661 24.1342C16.6317 23.8998 16.5 23.5818 16.5 23.2503V16.0276C16.5 15.8546 16.5359 15.6835 16.6054 15.5251C16.6749 15.3667 16.7766 15.2244 16.9039 15.1073L23.1539 9.21045L23.1625 9.20186C23.3926 8.99259 23.6925 8.87663 24.0035 8.87663C24.3146 8.87663 24.6144 8.99259 24.8445 9.20186C24.8472 9.20492 24.8501 9.20779 24.8531 9.21045L31.1031 15.1073C31.2292 15.225 31.3295 15.3676 31.3978 15.526C31.4661 15.6844 31.5009 15.8552 31.5 16.0276Z" fill="white"/>
<circle cx="24" cy="43.238" r="3.78125" fill="white" stroke="#F25F2C" stroke-width="0.5625"/>
</svg>