<svg xmlns:xlink="http://www.w3.org/1999/xlink"  width="48" height="20" fill="none" xmlns="http://www.w3.org/2000/svg"><path d="M44.283 19.307H3.717A3.721 3.721 0 0 1 0 15.585V3.905A3.72 3.72 0 0 1 3.717.186h40.566A3.717 3.717 0 0 1 48 3.904v11.681a3.721 3.721 0 0 1-3.717 3.722Z" fill="url(#:r2:)"></path><path d="m41.54 6.253-2.565 9.803-.01.019h2.004l2.574-9.822H41.54ZM9.774 11.83c-.264.139-.625.22-.966.22-.72 0-1.128-.115-1.171-.696v-.039c0-.024-.005-.048-.005-.072v-1.69l.005-.202V8.155h-.005v-.51l.005-.2V6.291l-1.787.235c1.21-.235 1.902-1.191 1.902-2.142v-.586H5.744V6.54l-.115.034v5.081c.067 1.427 1.009 2.277 2.55 2.277.548 0 1.148-.125 1.61-.332l.009-.004v-1.782l-.024.014Z" fill="#292929"></path><path d="m10.09 5.883-5.633.87v1.426l5.634-.87V5.884ZM10.09 7.973l-5.633.869v1.364l5.634-.87V7.974ZM16.407 8.63c-.082-1.585-1.071-2.526-2.685-2.526-.927 0-1.695.36-2.214 1.037-.519.678-.793 1.672-.793 2.877 0 1.206.274 2.205.793 2.877.519.678 1.287 1.038 2.214 1.038 1.614 0 2.608-.947 2.685-2.541v2.392h2.007V6.267l-2.007.308m.105 3.443c0 1.408-.74 2.315-1.878 2.315-1.176 0-1.877-.864-1.877-2.315 0-1.455.7-2.33 1.877-2.33.572.001 1.052.222 1.384.645.322.417.494.999.494 1.685ZM24.27 6.104c-1.62 0-2.609.941-2.686 2.531V4.082l-2.007.307v9.395h2.007v-2.392c.077 1.595 1.071 2.54 2.685 2.54 1.892 0 3.021-1.464 3.021-3.914s-1.129-3.914-3.02-3.914Zm-.913 6.23c-1.144 0-1.878-.908-1.878-2.316 0-.686.172-1.268.494-1.68.332-.423.812-.644 1.384-.644 1.176 0 1.878.87 1.878 2.33 0 1.445-.702 2.31-1.878 2.31ZM32.751 6.104c-1.619 0-2.608.941-2.685 2.531V4.082l-2.007.307v9.395h2.007v-2.392c.077 1.595 1.071 2.54 2.685 2.54 1.892 0 3.021-1.464 3.021-3.914s-1.129-3.914-3.021-3.914Zm-.908 6.23c-1.143 0-1.878-.908-1.878-2.316 0-.686.173-1.268.495-1.68.331-.423.812-.644 1.383-.644 1.177 0 1.878.87 1.878 2.33 0 1.445-.701 2.31-1.878 2.31ZM35.777 6.253h2.142l1.743 7.521h-1.92l-1.965-7.521Z" fill="#292929"></path><defs><linearGradient id=":r2:" x1="0" y1="9.746" x2="48.001" y2="9.746" gradientUnits="userSpaceOnUse"><stop stop-color="#3BFF9D"></stop><stop offset="1" stop-color="#3BFFC8"></stop></linearGradient></defs></svg>