<svg xmlns:xlink="http://www.w3.org/1999/xlink"  width="134" height="33" viewBox="0 0 590 144" fill="none" xmlns="http://www.w3.org/2000/svg"><g opacity="0.87"><path d="M212.934 21.6333L199.386 21.6972L179 73.0125H193.187L212.934 21.6333Z" fill="#5D4F52"></path><path d="M193.185 73.01H178.998L160.018 39.7797L174.141 39.9714L193.185 73.01Z" fill="#F25F2C"></path><path d="M36.2338 35.4337C32.5912 31.9828 28.4375 30.8326 23.5807 30.8326C17.5737 30.8326 14.2507 32.6858 14.2507 35.9449C14.2507 39.2679 17.2542 41.1212 23.8363 41.5685C33.4859 42.2075 45.7556 44.3803 45.7556 57.9919C45.7556 67.0025 38.4066 74.7988 23.7085 74.7988C15.5927 74.7988 7.47682 73.4568 0 65.6605L6.26263 56.6499C9.90518 60.6759 18.2128 63.7433 23.9003 63.8072C28.6931 63.935 33.1664 61.4428 33.1664 57.6724C33.1664 54.1577 30.2268 52.6879 23.0056 52.2405C13.356 51.5376 1.78932 47.9589 1.78932 36.3283C1.78932 24.506 14.059 20.3522 23.389 20.3522C31.3771 20.3522 37.3841 21.8859 43.3272 27.1261L36.2338 35.4337Z" fill="#5D4F52"></path><path fill-rule="evenodd" clip-rule="evenodd" d="M84.0343 62.9146C75.0877 62.9146 69.5919 58.3135 68.7612 51.987H108.765C110.746 30.8985 100.01 20.2904 82.884 20.2904C66.2689 20.2904 55.6608 31.4737 55.6608 47.0663C55.6608 63.4898 66.205 74.4174 83.8426 74.4174C91.6389 74.4174 100.458 71.7334 105.89 66.1099L97.7738 58.1218C94.8342 61.1253 88.6993 62.9146 84.0343 62.9146ZM83.3285 31.473C90.6136 31.473 95.7898 34.7961 96.6206 41.4421H69.0139C70.8671 34.7961 76.4907 31.473 83.3285 31.473Z" fill="#5D4F52"></path><path d="M133.432 21.8228L134.39 27.7659C138.353 21.4394 143.657 20.4808 148.833 20.4808C154.137 20.4808 159.249 22.5896 161.997 25.3375L156.31 35.6901C153.69 33.5173 149.728 32.9422 147.171 33.0061C140.525 33.2617 134.39 36.5208 134.39 45.9787V73.0102H121.737V21.8228H133.432Z" fill="#5D4F52"></path><path fill-rule="evenodd" clip-rule="evenodd" d="M235.811 7.38096C235.811 17.2222 220.857 17.2222 220.857 7.38096C220.857 -2.46032 235.811 -2.46032 235.811 7.38096ZM221.941 73.0758V21.6328H234.594V73.0758H221.941Z" fill="#5D4F52"></path><path d="M293.704 66.4965C287.761 72.3118 281.562 74.6124 273.958 74.6124C259.132 74.6124 246.734 65.6658 246.734 47.5169C246.734 29.3681 259.068 20.4214 273.958 20.4214C281.243 20.4214 286.866 22.5303 292.426 28.0261L284.438 36.4614C281.434 33.7775 277.664 32.4355 274.149 32.4355C265.65 32.4355 259.387 38.6981 259.387 47.5808C259.387 57.3582 266.033 62.5344 273.958 62.5344C277.984 62.5344 282.073 61.3842 285.205 58.2529L293.704 66.4965Z" fill="#5D4F52"></path><path fill-rule="evenodd" clip-rule="evenodd" d="M329.552 62.9146C320.605 62.9146 315.109 58.3135 314.279 51.987H354.283C356.264 30.8985 345.528 20.2904 328.401 20.2904C311.786 20.2904 301.178 31.4737 301.178 47.0663C301.178 63.4898 311.722 74.4174 329.36 74.4174C337.156 74.4174 345.975 71.7334 351.407 66.1099L343.291 58.1218C340.352 61.1253 334.217 62.9146 329.552 62.9146ZM328.847 31.473C336.132 31.473 341.309 34.7961 342.139 41.4421H314.533C316.386 34.7961 322.009 31.473 328.847 31.473Z" fill="#5D4F52"></path><path d="M5.68583 98.8931C9.20058 93.1417 16.4218 89.3074 23.0678 89.3074C30.8642 89.3074 39.0439 92.8221 42.0474 101.96C45.1788 93.5251 53.1668 89.3074 61.0271 89.3074C73.6162 89.3074 82.4989 98.1262 82.4989 110.907V141.645H77.3866V110.907C77.3866 101.066 70.7405 94.1002 60.9632 94.1002C51.1858 94.1002 44.4758 101.385 44.4758 111.227V141.645H39.3635V111.227C39.3635 101.385 32.5896 94.1641 22.8761 94.1641C12.2041 94.1641 6.45269 104.005 6.45269 115.764V141.581H1.34033C1.34033 141.581 1.40424 119.023 1.34033 114.038C1.40424 109.054 3.00185 103.239 5.68583 98.8931Z" fill="#5D4F52"></path><path fill-rule="evenodd" clip-rule="evenodd" d="M147.427 141.645V90.3299V90.266H142.315V101.513C138.097 93.5251 129.662 89.6908 121.354 89.6908C107.04 89.6908 95.2815 100.299 95.2815 115.956C95.2815 131.676 107.04 142.476 121.354 142.476C129.662 142.476 137.331 138.706 142.315 130.717V141.645H147.427ZM121.356 137.494C109.726 137.494 100.396 128.931 100.396 116.022C100.396 103.114 109.726 94.6144 121.356 94.6144C149.921 94.6144 149.921 137.494 121.356 137.494Z" fill="#5D4F52"></path><path d="M169.41 90.3282L169.602 99.4666C172.797 92.501 180.082 89.817 186.664 89.817C190.499 89.6892 194.269 90.7756 197.656 92.8205L195.355 96.9743C192.671 95.3128 189.668 94.6098 186.6 94.6098C177.015 94.7377 169.666 102.406 169.666 111.736V141.643H164.553V90.3282H169.41Z" fill="#5D4F52"></path><path d="M215.678 78.2484V112.757L239.898 90.3264H246.672V90.5181L220.663 114.546L249.675 141.322V141.642H243.221L215.678 116.527V141.642H210.694V78.8875L215.678 78.2484Z" fill="#5D4F52"></path><path fill-rule="evenodd" clip-rule="evenodd" d="M283.224 89.4977C268.782 89.4977 257.151 100.617 257.151 116.018C257.151 132.314 268.782 142.411 283.288 142.347C291.468 142.347 300.414 139.024 305.399 132.505L301.756 129.566C297.922 134.678 290.062 137.362 283.288 137.362C272.68 137.362 263.414 130.46 262.391 118.382H308.594C310.575 98.3165 297.667 89.4977 283.224 89.4977ZM283.226 94.164C295.56 94.164 303.867 101.257 303.995 113.91H262.329C263.48 101.321 272.618 94.164 283.226 94.164Z" fill="#5D4F52"></path><path d="M335.054 78.1866V90.3285H352.5V94.61H335.054V125.859C335.054 132.825 336.524 137.682 344.512 137.682C347.004 137.682 349.816 136.851 352.436 135.573L354.225 139.727C351.03 141.26 347.771 142.347 344.576 142.347C333.648 142.347 330.133 135.892 330.133 125.859V94.61H319.206V90.3285H330.133V78.6979L335.054 78.1866Z" fill="#5D4F52"></path></g><path d="M386.293 64.4031V59.9984C387.43 62.4139 390.082 65.0189 394.44 65.0189C400.692 65.0189 404.765 59.7615 404.765 53.0833C404.765 46.4052 400.834 41.1952 394.535 41.1952C389.988 41.1952 387.335 43.9423 386.341 46.1683V30.207H383.499V64.4031H386.293ZM394.108 62.4612C389.419 62.4612 386.293 58.5775 386.293 53.0833C386.293 47.6366 389.419 43.7528 394.108 43.7528C398.75 43.7528 401.923 47.6366 401.923 53.0833C401.923 58.5775 398.75 62.4612 394.108 62.4612Z" fill="#0C0011"></path><path d="M414.362 73.4021L428.997 41.8109H425.871L418.387 58.4827L410.478 41.8109H407.304L416.919 61.4666L411.283 73.4021H414.362Z" fill="#0C0011"></path><path d="M478.284 0H557.256C575.084 0 589.565 14.4739 589.565 32.292V111.248C589.565 129.091 575.084 143.565 557.256 143.565H478.284C460.456 143.565 446 129.091 446 111.248V32.292C446 14.4739 460.456 0 478.284 0Z" fill="url(#paint0_linear_1201_9516-logo)"></path><path d="M467.888 70.8638C466.075 70.0214 464.338 69.562 463.827 69.4598C461.324 68.7196 461.324 67.9793 461.324 67.5708C461.324 67.3666 462.167 66.4987 464.21 66.4987C464.772 66.4987 465.513 66.6774 466.024 67.0092C466.586 67.3666 467.198 67.5198 467.837 67.5198C468.961 67.5198 469.982 66.9582 470.595 66.0137C470.953 65.4265 471.106 64.8649 471.106 64.2523C471.106 63.1291 470.544 62.0569 469.523 61.4188C467.99 60.4743 466.024 59.8871 464.21 59.8871C458.796 59.8871 454.709 63.1801 454.709 67.5708C454.709 72.6252 458.719 74.8206 462.065 75.7651C462.141 75.8161 462.167 75.8161 462.295 75.8417C464.21 76.2756 466.637 77.4754 466.918 78.1391C466.918 78.7262 466.764 79.2368 466.305 79.6707C465.641 80.4621 464.44 80.8705 462.959 80.8705C461.886 80.8705 460.481 80.4621 459.868 79.3899C459.23 78.3178 458.106 77.7051 456.982 77.7051C456.42 77.7051 455.858 77.8583 455.348 78.1391C454.275 78.7773 453.687 79.8494 453.687 80.9726C453.687 81.5342 453.866 82.1724 454.147 82.683C455.858 85.6186 459.23 87.4821 462.959 87.4821C466.305 87.4821 469.191 86.2823 471.157 84.138C472.69 82.5043 473.482 80.36 473.482 78.2157V77.5775C473.328 75.663 472.23 72.9571 467.888 70.8638Z" fill="white"></path><path d="M499.381 60.7553C497.031 60.7553 495.013 61.47 493.327 62.8485C491.718 61.4956 489.675 60.7553 487.325 60.7553C485.895 60.7553 484.669 60.985 483.469 61.4956C482.983 61.1382 482.243 60.7553 481.272 60.7553C479.305 60.7553 477.671 62.389 477.671 64.4312V84.1893C477.671 86.1804 479.305 87.7886 481.272 87.7886C483.315 87.7886 484.95 86.1804 484.95 84.1893V71.3235C484.95 70.9662 485.052 70.0217 485.435 69.1793C485.818 68.3369 486.355 68.0305 487.325 68.0305C488.321 68.0305 488.781 68.3113 489.241 69.1793C489.598 70.0217 489.726 70.9662 489.726 71.3235V84.1893C489.726 86.1804 491.335 87.7886 493.327 87.7886C495.345 87.7886 496.98 86.1804 496.98 84.1893V71.3235C496.98 70.9662 497.107 70.0217 497.465 69.1793C497.848 68.3113 498.333 68.0305 499.381 68.0305C500.402 68.0305 500.836 68.2858 501.245 69.2048C501.679 70.0727 501.756 71.0427 501.756 71.3235V84.1893C501.756 86.1804 503.39 87.7886 505.383 87.7886C507.4 87.7886 509.035 86.1804 509.035 84.1893V71.3235C509.035 67.0605 506.455 60.7553 499.381 60.7553Z" fill="white"></path><path d="M517.515 49.2935C515.548 49.2935 513.913 50.9018 513.913 52.8929C513.913 54.9095 515.548 56.5433 517.515 56.5433C519.532 56.5433 521.192 54.9095 521.192 52.8929C521.192 50.9018 519.532 49.2935 517.515 49.2935Z" fill="white"></path><path d="M517.515 60.7553C515.548 60.7553 513.913 62.389 513.913 64.4312V84.1893C513.913 86.1804 515.548 87.7886 517.515 87.7886C519.532 87.7886 521.192 86.1804 521.192 84.1893V64.4312C521.192 62.4401 519.507 60.7553 517.515 60.7553Z" fill="white"></path><path d="M529.671 47.583C527.705 47.583 526.07 49.2167 526.07 51.2079V84.1891C526.07 86.1802 527.705 87.7884 529.671 87.7884C531.689 87.7884 533.349 86.1802 533.349 84.1891V51.2079C533.349 49.2167 531.689 47.583 529.671 47.583Z" fill="white"></path><path fill-rule="evenodd" clip-rule="evenodd" d="M555.186 63.0013C557.102 65.0435 558.124 67.8515 558.124 70.9403C558.124 70.9743 558.124 71.0169 558.124 71.0679C558.021 72.8038 556.642 74.1312 554.982 74.1312C551.381 74.1312 544.178 74.1312 540.577 74.1312C538.891 74.1312 537.538 72.8038 537.436 71.0934C537.436 71.0169 537.436 70.9658 537.436 70.9403C537.436 67.8515 538.457 65.0435 540.373 63.0013C542.263 60.8315 544.893 59.6572 547.78 59.6572C550.666 59.6572 553.296 60.8315 555.186 63.0013ZM547.78 65.4519C545.813 65.4519 544.102 66.473 543.055 68.2854H552.505C551.457 66.473 549.746 65.4519 547.78 65.4519Z" fill="white"></path><path d="M556.055 77.9858C555.518 77.6795 554.931 77.5008 554.344 77.5008C553.169 77.5008 551.994 78.1645 551.33 79.2877C550.691 80.4109 549.21 80.8193 548.086 80.8193C547.984 80.8193 547.575 80.8193 547.473 80.8193C546.349 80.8193 544.868 80.4109 544.229 79.2877C543.565 78.1645 542.39 77.5008 541.216 77.5008C540.628 77.5008 540.015 77.6795 539.504 77.9858C538.381 78.624 537.793 79.7472 537.793 80.947C537.793 81.2022 537.819 81.4575 537.87 81.7128C537.972 82.0702 538.074 82.402 538.253 82.7083C540.015 85.7716 543.565 87.7372 547.473 87.7372C547.575 87.7372 547.677 87.7117 547.78 87.7117C547.882 87.7117 547.984 87.7372 548.086 87.7372C551.994 87.7372 555.518 85.7716 557.306 82.7083C557.46 82.402 557.587 82.0702 557.664 81.7128C557.741 81.4575 557.766 81.2022 557.766 80.947C557.766 79.7472 557.179 78.624 556.055 77.9858Z" fill="white"></path><path d="M576.258 70.8638C574.445 70.0214 572.682 69.562 572.171 69.4598C569.694 68.7196 569.694 67.9793 569.694 67.5708C569.694 67.3666 570.537 66.4987 572.58 66.4987C573.142 66.4987 573.883 66.6774 574.393 67.0092C574.955 67.3666 575.568 67.5198 576.181 67.5198C577.331 67.5198 578.352 66.9582 578.965 66.0137C579.297 65.4265 579.476 64.8649 579.476 64.2523C579.476 63.1291 578.914 62.0569 577.893 61.4188C576.36 60.4743 574.393 59.8871 572.58 59.8871C567.14 59.8871 563.079 63.1801 563.079 67.5708C563.079 72.6252 567.089 74.8206 570.435 75.7651C570.511 75.8161 570.511 75.8161 570.639 75.8417C572.58 76.2756 575.006 77.4754 575.287 78.1391C575.287 78.7262 575.109 79.2368 574.674 79.6707C573.985 80.4621 572.81 80.8705 571.329 80.8705C570.256 80.8705 568.851 80.4621 568.213 79.3899C567.6 78.3178 566.476 77.7051 565.326 77.7051C564.765 77.7051 564.203 77.8583 563.692 78.1391C562.619 78.7773 562.057 79.8494 562.057 80.9726C562.057 81.5342 562.236 82.1724 562.517 82.683C564.203 85.6186 567.6 87.4821 571.329 87.4821C574.674 87.4821 577.561 86.2823 579.527 84.138C581.06 82.5043 581.851 80.36 581.851 78.2157V77.5775C581.673 75.663 580.6 72.9571 576.258 70.8638Z" fill="white"></path><g clip-path="url(#clip0_1201_9516-logo)"><path d="M478.453 0H557.575C575.46 0 589.944 14.4983 589.944 32.3684V111.491C589.944 129.361 575.46 143.86 557.575 143.86H478.453C460.583 143.86 446.084 129.361 446.084 111.491V32.3684C446.084 14.4983 460.583 0 478.453 0Z" fill="url(#paint1_linear_1201_9516-logo)"></path><path d="M468.029 71.0025C466.216 70.1596 464.46 69.7101 463.954 69.5977C461.468 68.8531 461.468 68.1225 461.468 67.7292C461.468 67.4904 462.311 66.6474 464.348 66.6474C464.924 66.6474 465.654 66.816 466.16 67.1532C466.736 67.4904 467.354 67.673 467.972 67.673C469.11 67.673 470.136 67.097 470.754 66.1417C471.091 65.5657 471.26 65.0037 471.26 64.3856C471.26 63.2476 470.698 62.1799 469.672 61.5477C468.141 60.5924 466.16 60.0164 464.348 60.0164C458.911 60.0164 454.837 63.3038 454.837 67.7292C454.837 72.7586 458.855 74.9784 462.198 75.9337C462.283 75.9618 462.297 75.9618 462.423 75.9899C464.348 76.4394 466.792 77.6336 467.073 78.3079C467.073 78.8839 466.905 79.3897 466.441 79.8392C465.767 80.64 464.573 81.0334 463.097 81.0334C462.03 81.0334 460.611 80.64 459.993 79.5583C459.36 78.4765 458.237 77.8584 457.099 77.8584C456.537 77.8584 455.961 78.0269 455.455 78.3079C454.373 78.9401 453.811 80.0078 453.811 81.1458C453.811 81.7077 453.98 82.3399 454.261 82.8457C455.961 85.7819 459.36 87.6644 463.097 87.6644C466.441 87.6644 469.335 86.4703 471.316 84.3208C472.847 82.6771 473.648 80.5276 473.648 78.3641V77.746C473.465 75.8213 472.398 73.1099 468.029 71.0025Z" fill="white"></path><path d="M499.582 60.8874C497.236 60.8874 495.199 61.5899 493.527 62.9807C491.926 61.6039 489.846 60.8874 487.514 60.8874C486.081 60.8874 484.845 61.1263 483.651 61.632C483.159 61.2667 482.4 60.8874 481.459 60.8874C479.464 60.8874 477.849 62.5311 477.849 64.5542V84.377C477.849 86.3579 479.464 87.9875 481.459 87.9875C483.482 87.9875 485.126 86.3579 485.126 84.377V71.4662C485.126 71.129 485.238 70.1596 485.604 69.3307C486.011 68.4738 486.517 68.1647 487.514 68.1647C488.498 68.1647 488.961 68.4457 489.425 69.3307C489.79 70.1596 489.917 71.129 489.917 71.4662V84.377C489.917 86.3579 491.532 87.9875 493.527 87.9875C495.55 87.9875 497.194 86.3579 497.194 84.377V71.4662C497.194 71.129 497.306 70.1596 497.671 69.3307C498.065 68.4597 498.542 68.1647 499.582 68.1647C500.608 68.1647 501.043 68.4316 501.451 69.3448C501.886 70.2158 501.984 71.1852 501.984 71.4662V84.377C501.984 86.3579 503.6 87.9875 505.595 87.9875C507.618 87.9875 509.262 86.3579 509.262 84.377V71.4662C509.262 67.2094 506.677 60.8874 499.582 60.8874Z" fill="white"></path><path d="M517.775 49.3955C515.78 49.3955 514.165 51.0111 514.165 53.0061C514.165 55.015 515.78 56.6728 517.775 56.6728C519.798 56.6728 521.442 55.015 521.442 53.0061C521.442 51.0111 519.798 49.3955 517.775 49.3955Z" fill="white"></path><path d="M517.775 60.8874C515.78 60.8874 514.165 62.5311 514.165 64.5542V84.377C514.165 86.3579 515.78 87.9875 517.775 87.9875C519.798 87.9875 521.442 86.3579 521.442 84.377V64.5542C521.442 62.5592 519.756 60.8874 517.775 60.8874Z" fill="white"></path><path d="M529.956 47.6956C527.961 47.6956 526.331 49.3112 526.331 51.3062V84.377C526.331 86.3579 527.961 87.9875 529.956 87.9875C531.979 87.9875 533.622 86.3579 533.622 84.377V51.3062C533.622 49.3112 531.979 47.6956 529.956 47.6956Z" fill="white"></path><path fill-rule="evenodd" clip-rule="evenodd" d="M555.524 63.1212C557.421 65.1723 558.46 67.9961 558.46 71.0868C558.46 71.1243 558.456 71.1664 558.446 71.2133C558.362 72.9553 556.971 74.2759 555.314 74.2759C551.703 74.2759 544.468 74.2759 540.857 74.2759C539.2 74.2759 537.809 72.9553 537.725 71.2414C537.71 71.1711 537.71 71.129 537.71 71.0868C537.71 67.9961 538.75 65.1723 540.661 63.1212C542.557 60.9577 545.198 59.7776 548.078 59.7635C550.972 59.7776 553.6 60.9577 555.524 63.1212ZM548.093 65.5797C546.112 65.5797 544.398 66.6053 543.344 68.4176H552.827C551.773 66.6053 550.059 65.5797 548.093 65.5797Z" fill="white"></path><path d="M556.381 78.1534C555.847 77.8583 555.257 77.6757 554.667 77.6757C553.487 77.6757 552.307 78.322 551.647 79.4459C551.001 80.5698 549.525 80.9912 548.402 80.9912C548.289 80.9912 547.882 80.9912 547.769 80.9912C546.645 80.9912 545.17 80.5698 544.524 79.4459C543.864 78.322 542.684 77.6757 541.504 77.6757C540.914 77.6757 540.309 77.8583 539.79 78.1534C538.652 78.7996 538.062 79.9235 538.062 81.1036C538.062 81.3565 538.104 81.6234 538.174 81.8904C538.244 82.2416 538.371 82.5787 538.539 82.8738C540.309 85.9505 543.864 87.9032 547.769 87.9032C547.882 87.9032 547.98 87.9032 548.078 87.8892C548.191 87.9032 548.289 87.9032 548.402 87.9032C552.307 87.9032 555.847 85.9505 557.632 82.8738C557.8 82.5787 557.927 82.2416 557.997 81.8904C558.067 81.6234 558.109 81.3565 558.109 81.1036C558.109 79.9235 557.505 78.7996 556.381 78.1534Z" fill="white"></path><path d="M576.612 71.0025C574.799 70.1596 573.043 69.7101 572.537 69.5977C570.037 68.8531 570.037 68.1225 570.037 67.7292C570.037 67.4904 570.894 66.6474 572.931 66.6474C573.493 66.6474 574.237 66.816 574.743 67.1532C575.305 67.4904 575.937 67.673 576.555 67.673C577.693 67.673 578.705 67.097 579.337 66.1417C579.674 65.5657 579.843 65.0037 579.843 64.3856C579.843 63.2476 579.281 62.1799 578.255 61.5477C576.724 60.5924 574.743 60.0164 572.931 60.0164C567.494 60.0164 563.406 63.3038 563.406 67.7292C563.406 72.7586 567.438 74.9784 570.781 75.9337C570.852 75.9618 570.866 75.9618 571.006 75.9899C572.931 76.4394 575.361 77.6336 575.656 78.3079C575.656 78.8839 575.474 79.3897 575.024 79.8392C574.35 80.64 573.156 81.0334 571.68 81.0334C570.613 81.0334 569.194 80.64 568.562 79.5583C567.943 78.4765 566.805 77.8584 565.682 77.8584C565.106 77.8584 564.544 78.0269 564.038 78.3079C562.956 78.9401 562.394 80.0078 562.394 81.1458C562.394 81.7077 562.563 82.3399 562.844 82.8457C564.544 85.7819 567.943 87.6644 571.68 87.6644C575.024 87.6644 577.918 86.4703 579.899 84.3208C581.43 82.6771 582.217 80.5276 582.217 78.3641V77.746C582.048 75.8213 580.981 73.1099 576.612 71.0025Z" fill="white"></path></g><defs><linearGradient id="paint0_linear_1201_9516-logo" x1="529.391" y1="226.988" x2="385.877" y2="83.372" gradientUnits="userSpaceOnUse"><stop offset="0.198" stop-color="#E03D26"></stop><stop offset="0.921" stop-color="#8754A1"></stop></linearGradient><linearGradient id="paint1_linear_1201_9516-logo" x1="529.689" y1="227.464" x2="385.829" y2="83.6043" gradientUnits="userSpaceOnUse"><stop offset="0.198" stop-color="#424C99"></stop><stop offset="0.921" stop-color="#75428E"></stop></linearGradient><clipPath id="clip0_1201_9516-logo"><rect width="144" height="143.86" fill="white" transform="translate(446)"></rect></clipPath></defs></svg>